<?xml version="1.0" encoding="UTF-8"?>
<svg id="Layer_1" data-name="Layer 1" xmlns="http://www.w3.org/2000/svg" viewBox="0 0 645.44 208.34">
  <defs>
    <style>
      .cls-1 {
        fill: #12abe3;
      }

      .cls-1, .cls-2, .cls-3 {
        stroke-width: 0px;
      }

      .cls-2, .cls-3 {
        fill: #203163;
      }

      .cls-3 {
        fill-rule: evenodd;
      }
    </style>
  </defs>
  <g>
    <path class="cls-2" d="M160.17,124.07v.11c-.07,15-14.82,27.16-33.02,27.16-10.68,0-20.52-4.69-26.56-11.18l8.21-13.79c4.35,5.06,11.17,9.17,18.35,9.17,8.79,0,15.9-5.14,15.9-11.46,0-5.03-3.61-9.13-7.36-10.54h.05l7.76-13.13c9.96,4.67,16.67,13.51,16.67,23.67Z"/>
    <path class="cls-3" d="M167.79,157.57h21.7c-16.69,26.48-46.21,44.06-79.83,44.06-52.11,0-94.35-42.24-94.35-94.35S57.55,12.93,109.66,12.93c37.33,0,69.57,21.66,84.87,53.11h-20.01c-13.65-21.42-37.59-35.62-64.86-35.62-42.45,0-76.86,34.42-76.86,76.86s34.42,76.86,76.86,76.86c23.22,0,44.04-10.29,58.13-26.57Z"/>
    <polygon class="cls-2" points="57.25 75.48 57.25 90.91 74.87 90.91 74.87 149.95 91.14 149.95 91.14 90.91 101.21 90.91 110.44 75.48 57.25 75.48"/>
    <polygon class="cls-1" points="158.24 75.48 116.99 75.48 107.76 90.91 129.91 90.91 116.6 113.53 135.75 113.52 158.24 75.48"/>
  </g>
  <g>
    <path class="cls-1" d="M181.37,79.62h11.43v50.92h29.68l-1.36,9.98h-39.75v-60.9Z"/>
    <path class="cls-1" d="M230.51,79.62h41.2v9.38h-29.94v15.61h28.23v9.47h-28.23v17.06h31.65l-1.36,9.38h-41.54v-60.9Z"/>
    <path class="cls-1" d="M300.62,79.62h13.05l22.35,60.9h-11.86l-5.29-14.76h-24.05l-5.2,14.76h-11.52l22.52-60.9ZM315.97,116.39l-9.13-26.19-9.04,26.19h18.17Z"/>
    <path class="cls-1" d="M343.44,79.62h21.84c5.91,0,10.55.82,13.9,2.47,3.35,1.65,5.74,3.84,7.16,6.57s2.13,5.75,2.13,9.04c0,3.87-.81,7.21-2.43,10.02-1.62,2.82-4.17,5.05-7.63,6.7l12.79,26.1h-12.11l-11-23.63c-.57.06-1.15.1-1.75.13-.6.03-1.15.04-1.66.04h-10.24v23.46h-11v-60.9ZM365.36,108.03c4.66,0,7.82-.88,9.47-2.64,1.65-1.76,2.47-4.21,2.47-7.34s-.88-5.33-2.64-6.95c-1.76-1.62-5.09-2.43-9.98-2.43h-10.24v19.36h10.92Z"/>
    <path class="cls-1" d="M399.23,79.62h10.49l27.47,43.08v-43.08h10.75v60.9h-10.24l-27.64-42.82v42.82h-10.83v-60.9Z"/>
    <path class="cls-1" d="M460.22,140.53v-8.27h1.88v8.27h-1.88Z"/>
    <path class="cls-1" d="M505.85,126.2c-.74,4.95-2.64,8.8-5.71,11.56-3.07,2.76-7.05,4.14-11.94,4.14-5.97,0-10.68-2.02-14.12-6.06-3.44-4.04-5.16-9.61-5.16-16.72s1.76-13.02,5.29-17.23c3.53-4.21,8.33-6.31,14.42-6.31,4.38,0,7.96,1.18,10.75,3.54,2.79,2.36,4.69,5.87,5.71,10.53l-1.62.34c-1.02-4.32-2.76-7.52-5.2-9.6-2.45-2.08-5.69-3.11-9.72-3.11-5.57,0-9.92,1.93-13.05,5.8-3.13,3.87-4.69,9.16-4.69,15.87s1.52,11.86,4.56,15.61c3.04,3.75,7.32,5.63,12.84,5.63,4.38,0,7.93-1.21,10.66-3.62,2.73-2.42,4.49-5.87,5.29-10.36h1.71Z"/>
    <path class="cls-1" d="M534.17,141.89c-6.2,0-11.05-2.03-14.54-6.1-3.5-4.07-5.25-9.74-5.25-17.02s1.76-12.96,5.29-17.06c3.53-4.09,8.39-6.14,14.59-6.14s11.05,2.05,14.54,6.14c3.5,4.09,5.25,9.78,5.25,17.06s-1.75,12.88-5.25,16.97c-3.5,4.09-8.37,6.14-14.63,6.14ZM534.17,140.19c5.74,0,10.18-1.86,13.31-5.59,3.13-3.72,4.69-9,4.69-15.82s-1.58-12.11-4.73-15.87-7.58-5.63-13.26-5.63-10.09,1.88-13.22,5.63c-3.13,3.75-4.69,9.04-4.69,15.87s1.56,12.1,4.69,15.82c3.13,3.73,7.53,5.59,13.22,5.59Z"/>
    <path class="cls-1" d="M622.28,140.53v-29.68c0-4.55-.95-7.95-2.86-10.19-1.91-2.25-4.85-3.37-8.83-3.37-4.78,0-8.81,1.82-12.11,5.46-1.48,1.59-2.39,2.97-2.73,4.14-.34,1.17-.51,3.31-.51,6.44v27.21h-1.79v-29.68c0-9.04-3.9-13.56-11.69-13.56-4.78,0-8.81,1.82-12.11,5.46-1.42,1.54-2.32,2.92-2.69,4.14-.37,1.22-.55,3.37-.55,6.44v27.21h-1.79v-43.59h1.79v7.59c1.82-2.84,4.09-5.05,6.82-6.61,2.73-1.56,5.66-2.35,8.79-2.35,6.94,0,11.15,3.21,12.62,9.64,1.93-3.01,4.32-5.37,7.17-7.08,2.84-1.71,5.86-2.56,9.04-2.56,4.38,0,7.68,1.27,9.89,3.8,2.22,2.53,3.33,6.27,3.33,11.22v29.94h-1.79Z"/>
  </g>
  <g>
    <path class="cls-2" d="M287.95,174.54l3.64-17.21h5.06c1.69,0,2.99.37,3.91,1.12.92.75,1.37,1.81,1.37,3.19,0,1.82-.62,3.23-1.86,4.23-1.24,1-2.97,1.51-5.21,1.51h-4.46l-1.52,7.16h-.94ZM295.02,166.51c1.94,0,3.42-.41,4.42-1.24,1-.83,1.51-2.04,1.51-3.63,0-1.14-.37-2-1.12-2.59-.75-.59-1.85-.88-3.31-.88h-4.15l-1.78,8.34h4.44Z"/>
    <path class="cls-2" d="M307.46,174.92c-1.51,0-2.7-.48-3.56-1.43-.86-.96-1.29-2.28-1.29-3.97,0-1.4.29-2.68.87-3.86s1.39-2.11,2.43-2.82c1.04-.71,2.23-1.06,3.54-1.06,1.51,0,2.7.48,3.56,1.43.86.96,1.29,2.28,1.29,3.97,0,1.4-.29,2.68-.87,3.86-.58,1.17-1.39,2.11-2.43,2.82-1.04.71-2.23,1.06-3.54,1.06ZM307.5,174.1c1.08,0,2.06-.29,2.94-.87.88-.58,1.59-1.4,2.11-2.46.52-1.06.78-2.27.78-3.62,0-1.46-.34-2.59-1.02-3.38-.68-.79-1.65-1.18-2.9-1.18-1.06,0-2.03.29-2.92.87-.88.58-1.59,1.4-2.12,2.46-.53,1.06-.8,2.27-.8,3.62,0,1.46.34,2.59,1.02,3.38.68.79,1.65,1.18,2.9,1.18Z"/>
    <path class="cls-2" d="M325.34,174.54l-.99-11.31-5.79,11.31h-1.06l-.99-12.37h.96l.77,11.33,5.79-11.26h1.06l.99,11.26,5.57-11.33h.99l-6.24,12.37h-1.06Z"/>
    <path class="cls-2" d="M342.65,171.45c-.47,1.21-1.11,2.08-1.92,2.64-.81.55-1.88.83-3.19.83-1.59,0-2.82-.47-3.7-1.4-.88-.93-1.31-2.24-1.31-3.93,0-1.45.27-2.76.81-3.94.54-1.18,1.31-2.12,2.3-2.82s2.13-1.05,3.4-1.05c1.41,0,2.52.45,3.33,1.34.8.89,1.21,2.12,1.21,3.68,0,.5-.04.96-.12,1.4l-.07.39h-9.88c-.03.4-.05.75-.05,1.04,0,1.45.36,2.56,1.08,3.33.72.77,1.75,1.16,3.09,1.16,1.06,0,1.92-.21,2.59-.63.67-.42,1.19-1.09,1.55-2.03h.89ZM342.6,167.79c.05-.34.07-.68.07-1.04,0-1.3-.33-2.32-.99-3.05-.66-.73-1.57-1.1-2.72-1.1-1.33,0-2.49.47-3.47,1.42-.98.95-1.61,2.2-1.88,3.76h8.99Z"/>
    <path class="cls-2" d="M344.96,174.54l2.63-12.37h.92l-.46,2.12c1.43-1.54,2.89-2.31,4.39-2.31.34,0,.69.04,1.06.12l-.27.87c-.24-.06-.54-.1-.89-.1-.88,0-1.8.33-2.75.99-.64.47-1.12.95-1.45,1.45-.32.5-.56,1.16-.72,1.98l-1.54,7.26h-.92Z"/>
    <path class="cls-2" d="M363.53,171.45c-.47,1.21-1.11,2.08-1.92,2.64-.81.55-1.88.83-3.19.83-1.59,0-2.82-.47-3.7-1.4-.88-.93-1.31-2.24-1.31-3.93,0-1.45.27-2.76.81-3.94.54-1.18,1.31-2.12,2.3-2.82s2.13-1.05,3.4-1.05c1.41,0,2.52.45,3.33,1.34.8.89,1.21,2.12,1.21,3.68,0,.5-.04.96-.12,1.4l-.07.39h-9.88c-.03.4-.05.75-.05,1.04,0,1.45.36,2.56,1.08,3.33.72.77,1.75,1.16,3.09,1.16,1.06,0,1.92-.21,2.59-.63.67-.42,1.19-1.09,1.55-2.03h.89ZM363.48,167.79c.05-.34.07-.68.07-1.04,0-1.3-.33-2.32-.99-3.05-.66-.73-1.57-1.1-2.72-1.1-1.33,0-2.49.47-3.47,1.42-.98.95-1.61,2.2-1.88,3.76h8.99Z"/>
    <path class="cls-2" d="M375.29,174.54l.53-2.43c-.64.96-1.36,1.67-2.16,2.13s-1.69.69-2.69.69c-1.38,0-2.46-.45-3.23-1.35-.77-.9-1.16-2.15-1.16-3.76,0-1.41.29-2.73.86-3.94.57-1.21,1.37-2.2,2.4-2.95,1.03-.76,2.18-1.13,3.45-1.13,1.03,0,1.89.25,2.6.75s1.21,1.2,1.5,2.1l1.57-7.3h.92l-3.66,17.21h-.92ZM376.74,167.86c.15-.74.22-1.3.22-1.69,0-1.09-.34-1.96-1.01-2.6-.67-.64-1.57-.96-2.7-.96-1.01,0-1.95.31-2.81.92s-1.56,1.47-2.09,2.58c-.53,1.11-.8,2.35-.8,3.71s.3,2.44.9,3.18c.6.74,1.47,1.11,2.59,1.11,1.32,0,2.48-.48,3.48-1.43s1.67-2.21,1.99-3.77l.22-1.04Z"/>
    <path class="cls-2" d="M385.1,174.54l3.66-17.21h.92l-1.57,7.3c1.24-1.9,2.85-2.84,4.84-2.84,1.38,0,2.46.45,3.23,1.35s1.16,2.15,1.16,3.76c0,1.41-.29,2.73-.86,3.94-.57,1.21-1.37,2.2-2.4,2.95-1.03.75-2.18,1.13-3.45,1.13-1.03,0-1.9-.25-2.6-.74s-1.21-1.19-1.49-2.08l-.53,2.43h-.92ZM387.2,168.87c-.14.74-.22,1.3-.22,1.69,0,1.08.33,1.94,1,2.58.67.64,1.57.96,2.71.96,1.01,0,1.95-.3,2.81-.92.86-.61,1.55-1.47,2.08-2.58.53-1.11.79-2.35.79-3.71s-.3-2.44-.92-3.18c-.61-.74-1.47-1.11-2.58-1.11-.85,0-1.65.21-2.4.64s-1.39,1.03-1.93,1.82-.92,1.71-1.14,2.77l-.22,1.04Z"/>
    <path class="cls-2" d="M402.07,174.32l-2.77-12.15h.99l2.43,11.14,6.73-11.14h1.06l-8.8,14.32c-.5.82-.91,1.41-1.23,1.78-.32.37-.63.62-.94.75-.31.13-.67.19-1.08.19-.5,0-1.03-.11-1.59-.31l.29-.75c.5.16.92.24,1.28.24.47,0,.86-.14,1.19-.42.33-.28.76-.86,1.29-1.75l1.16-1.9Z"/>
    <path class="cls-2" d="M419.98,174.54l3.47-16.32h-6.05l.17-.89h13.07l-.17.89h-6.05l-3.47,16.32h-.96Z"/>
    <path class="cls-2" d="M434.5,166.25l.19-.87h1.9c1.45,0,2.58-.34,3.39-1.01s1.22-1.62,1.22-2.82c0-1.06-.33-1.87-.98-2.42-.65-.55-1.6-.83-2.83-.83-2.46,0-4.04,1.13-4.75,3.4l-.87-.17c.34-1.3,1-2.31,1.99-3.03s2.21-1.07,3.68-1.07,2.64.36,3.47,1.08c.84.72,1.25,1.72,1.25,3.01,0,1.06-.32,1.97-.95,2.74s-1.5,1.28-2.59,1.54c.76.26,1.33.72,1.74,1.38.4.66.6,1.47.6,2.44,0,1.01-.23,1.93-.7,2.74-.47.81-1.13,1.45-2,1.92-.87.47-1.87.7-3.01.7-1.61,0-2.87-.42-3.8-1.27-.92-.84-1.4-2-1.43-3.48h.89c.03,1.21.44,2.15,1.23,2.84.79.69,1.85,1.04,3.18,1.04,1.45,0,2.59-.41,3.42-1.22.83-.81,1.25-1.91,1.25-3.29,0-1.08-.26-1.9-.78-2.48-.52-.58-1.27-.87-2.25-.87h-2.46Z"/>
    <path class="cls-2" d="M461.3,174.54l-.99-5.5h-8.32l-3.3,5.5h-1.06l10.41-17.21h1.08l3.18,17.21h-1.01ZM458.38,158.39l-5.86,9.76h7.62l-1.76-9.76Z"/>
    <path class="cls-2" d="M466.75,174.54l-2.41-12.37h.96l2.15,11.31,7.04-11.31h1.04l-7.74,12.37h-1.04Z"/>
    <path class="cls-2" d="M474.83,174.54l2.63-12.37h.92l-2.63,12.37h-.92ZM477.96,159.54l.48-2.22h.96l-.48,2.22h-.96Z"/>
    <path class="cls-2" d="M487.36,174.54l.46-2.12c-1.3,1.61-2.94,2.41-4.92,2.41-1.19,0-2.11-.29-2.75-.86-.64-.57-.96-1.39-.96-2.45,0-2.88,2.37-4.39,7.11-4.53l2.65-.1.07-.31c.11-.43.17-.9.17-1.4,0-.88-.27-1.53-.82-1.95-.55-.42-1.41-.63-2.58-.63-1.09,0-1.96.18-2.6.53s-1.12.92-1.42,1.71l-.82-.14c.35-1,.93-1.73,1.72-2.21.8-.47,1.85-.71,3.17-.71,2.83,0,4.24,1.12,4.24,3.37,0,.51-.06,1.03-.17,1.54l-1.66,7.83h-.89ZM488.81,167.64l-2.53.1c-2.15.1-3.71.44-4.67,1.02s-1.43,1.49-1.43,2.71c0,.85.23,1.48.69,1.89.46.41,1.17.61,2.13.61.87,0,1.67-.17,2.41-.51.74-.34,1.37-.82,1.88-1.46s.87-1.38,1.06-2.23l.46-2.15Z"/>
    <path class="cls-2" d="M497.51,174.39c-.72.27-1.41.41-2.07.41-1.7,0-2.55-.8-2.55-2.41,0-.37.05-.78.14-1.23l1.74-8.17h-1.93l.17-.82h1.93l.72-3.45h.92l-.72,3.45h3.86l-.14.82h-3.88l-1.76,8.32c-.08.37-.12.69-.12.96,0,1.14.61,1.71,1.83,1.71.55,0,1.11-.12,1.69-.36l.19.77Z"/>
    <path class="cls-2" d="M499.44,174.54l2.63-12.37h.92l-2.63,12.37h-.92ZM502.57,159.54l.48-2.22h.96l-.48,2.22h-.96Z"/>
    <path class="cls-2" d="M509.37,174.92c-1.51,0-2.7-.48-3.56-1.43-.86-.96-1.29-2.28-1.29-3.97,0-1.4.29-2.68.87-3.86.58-1.17,1.39-2.11,2.44-2.82,1.04-.71,2.23-1.06,3.54-1.06,1.51,0,2.7.48,3.56,1.43.86.96,1.29,2.28,1.29,3.97,0,1.4-.29,2.68-.87,3.86-.58,1.17-1.39,2.11-2.43,2.82s-2.23,1.06-3.54,1.06ZM509.42,174.1c1.08,0,2.06-.29,2.94-.87.88-.58,1.59-1.4,2.11-2.46s.78-2.27.78-3.62c0-1.46-.34-2.59-1.02-3.38-.68-.79-1.65-1.18-2.9-1.18-1.06,0-2.03.29-2.92.87-.88.58-1.59,1.4-2.12,2.46s-.8,2.27-.8,3.62c0,1.46.34,2.59,1.02,3.38.68.79,1.65,1.18,2.91,1.18Z"/>
    <path class="cls-2" d="M526.68,174.54l1.71-8.05c.08-.4.12-.78.12-1.13,0-.88-.23-1.56-.7-2.03s-1.14-.7-2.02-.7c-1.21,0-2.39.44-3.57,1.33-.58.43-1.01.89-1.29,1.36s-.52,1.14-.71,2.01l-1.54,7.21h-.92l2.63-12.37h.92l-.46,2.12c1.54-1.67,3.25-2.51,5.11-2.51,1.09,0,1.94.31,2.55.93.61.62.92,1.47.92,2.57,0,.37-.06.84-.17,1.42l-1.66,7.83h-.92Z"/>
    <path class="cls-2" d="M548.85,174.54l-.99-5.5h-8.32l-3.3,5.5h-1.06l10.41-17.21h1.08l3.18,17.21h-1.01ZM545.94,158.39l-5.86,9.76h7.62l-1.76-9.76Z"/>
    <path class="cls-2" d="M562.69,170.49c-.42,1.46-1.09,2.57-2.03,3.31-.93.75-2.1,1.12-3.5,1.12-1.53,0-2.72-.46-3.59-1.39-.87-.92-1.3-2.21-1.3-3.84,0-1.45.28-2.77.83-3.97.55-1.2,1.34-2.15,2.36-2.87,1.02-.71,2.17-1.07,3.46-1.07s2.29.35,3.05,1.06c.76.71,1.21,1.71,1.34,3.01l-.87.12c-.27-2.25-1.46-3.38-3.54-3.38-1.06,0-2.02.29-2.87.88-.85.59-1.53,1.41-2.04,2.48-.51,1.07-.76,2.29-.76,3.68s.35,2.53,1.05,3.3c.7.77,1.68,1.16,2.95,1.16,2.3,0,3.81-1.21,4.53-3.62h.92Z"/>
    <path class="cls-2" d="M574.12,174.54l.53-2.43c-.64.96-1.36,1.67-2.16,2.13-.79.46-1.69.69-2.69.69-1.38,0-2.46-.45-3.23-1.35-.77-.9-1.16-2.15-1.16-3.76,0-1.41.29-2.73.86-3.94.57-1.21,1.37-2.2,2.4-2.95,1.03-.76,2.18-1.13,3.45-1.13,1.03,0,1.9.25,2.6.75s1.21,1.2,1.5,2.1l1.57-7.3h.92l-3.66,17.21h-.92ZM575.56,167.86c.15-.74.22-1.3.22-1.69,0-1.09-.34-1.96-1.01-2.6-.67-.64-1.58-.96-2.7-.96-1.01,0-1.95.31-2.81.92-.86.61-1.55,1.47-2.08,2.58-.53,1.11-.79,2.35-.79,3.71s.3,2.44.9,3.18,1.47,1.11,2.59,1.11c1.32,0,2.48-.48,3.48-1.43,1-.96,1.67-2.21,1.99-3.77l.22-1.04Z"/>
    <path class="cls-2" d="M589.33,171.45c-.47,1.21-1.1,2.08-1.92,2.64s-1.88.83-3.19.83c-1.59,0-2.82-.47-3.7-1.4-.88-.93-1.31-2.24-1.31-3.93,0-1.45.27-2.76.81-3.94.54-1.18,1.31-2.12,2.3-2.82s2.13-1.05,3.4-1.05c1.41,0,2.52.45,3.33,1.34.8.89,1.21,2.12,1.21,3.68,0,.5-.04.96-.12,1.4l-.07.39h-9.88c-.03.4-.05.75-.05,1.04,0,1.45.36,2.56,1.08,3.33.72.77,1.75,1.16,3.08,1.16,1.06,0,1.92-.21,2.59-.63s1.18-1.09,1.55-2.03h.89ZM589.28,167.79c.05-.34.07-.68.07-1.04,0-1.3-.33-2.32-.99-3.05s-1.57-1.1-2.72-1.1c-1.33,0-2.49.47-3.47,1.42s-1.61,2.2-1.88,3.76h8.99Z"/>
    <path class="cls-2" d="M607.72,174.54l1.62-7.55c.14-.71.22-1.33.22-1.88,0-.8-.21-1.42-.62-1.84-.41-.43-1-.64-1.77-.64-1.21,0-2.31.45-3.3,1.35-.5.43-.86.86-1.08,1.29-.22.43-.43,1.04-.6,1.84l-1.59,7.42h-.92l1.59-7.5c.16-.84.24-1.45.24-1.83,0-.85-.2-1.5-.59-1.93s-.97-.65-1.72-.65c-1.14,0-2.23.46-3.28,1.38-.53.47-.92.93-1.17,1.4-.25.47-.46,1.12-.64,1.95l-1.54,7.18h-.92l2.63-12.37h.92l-.46,2.12c.69-.82,1.43-1.44,2.21-1.87s1.57-.64,2.38-.64c.88,0,1.59.25,2.11.75.52.5.83,1.2.93,2.1.64-.88,1.41-1.58,2.29-2.08s1.78-.76,2.68-.76c.98,0,1.75.29,2.31.88.56.59.84,1.4.84,2.45,0,.58-.06,1.17-.19,1.76l-1.64,7.67h-.92Z"/>
    <path class="cls-2" d="M615.92,174.32l-2.77-12.15h.99l2.43,11.14,6.73-11.14h1.06l-8.8,14.32c-.5.82-.91,1.41-1.23,1.78-.32.37-.63.62-.94.75-.31.13-.67.19-1.08.19-.5,0-1.03-.11-1.59-.31l.29-.75c.5.16.92.24,1.28.24.47,0,.86-.14,1.19-.42.33-.28.76-.86,1.29-1.75l1.16-1.9Z"/>
  </g>
</svg>